<svg width="72" height="72" viewBox="0 0 72 72" fill="none" xmlns="http://www.w3.org/2000/svg">
<path d="M25 13.5L31 1.5V10.5H35.5L29.5 21V13.5H25Z" fill="#D9C07E"/>
<path d="M40.5963 14.0647L49.4977 4.02655L47.1683 12.7199L51.515 13.8846L43.0018 22.4739L44.943 15.2294L40.5963 14.0647Z" fill="#D9C07E"/>
<path d="M13.5 24.6423L12.6962 11.25L17.1962 19.0442L21.0933 16.7942L21.1471 28.8875L17.3971 22.3923L13.5 24.6423Z" fill="#D9C07E"/>
<path d="M54.3952 44.052C50.2947 48.1525 43.6465 48.1525 39.546 44.052C35.4455 39.9515 35.4455 33.3033 39.546 29.2028C40.4522 28.2966 42.161 27.4448 44.4555 26.7097C46.6981 25.9912 49.2997 25.4449 51.7982 25.0367C54.2901 24.6296 56.6433 24.3657 58.3759 24.2036C58.7856 24.1653 59.16 24.1327 59.4927 24.1053C59.4653 24.4381 59.4327 24.8124 59.3944 25.2221C59.2323 26.9547 58.9684 29.3079 58.5613 31.7998C58.1531 34.2983 57.6068 36.8999 56.8883 39.1425C56.1532 41.437 55.3014 43.1458 54.3952 44.052Z" stroke="#313E57" stroke-width="3"/>
<path d="M34 57V50.8556C34 47.1747 35.7537 43.714 38.722 41.5372L49 34" stroke="#313E57" stroke-width="3" stroke-linecap="round" stroke-linejoin="round"/>
<path d="M16.8975 49.7454C20.063 52.9109 25.1952 52.9109 28.3606 49.7454C31.5261 46.58 31.5261 41.4478 28.3606 38.2824C27.6882 37.6099 26.3784 36.9456 24.551 36.3601C22.7755 35.7913 20.709 35.3568 18.7165 35.0313C16.7305 34.7069 14.854 34.4964 13.4716 34.367C13.2825 34.3494 13.1029 34.3332 12.9337 34.3185C12.9484 34.4877 12.9645 34.6673 12.9822 34.8564C13.1116 36.2388 13.3221 38.1153 13.6465 40.1013C13.972 42.0938 14.4065 44.1603 14.9753 45.9358C15.5608 47.7632 16.2251 49.073 16.8975 49.7454Z" stroke="#313E57" stroke-width="3"/>
<path d="M34.0004 57V57C34.0004 53.2423 32.1568 49.7237 29.0672 47.5847L21.0004 42" stroke="#313E57" stroke-width="3" stroke-linecap="round" stroke-linejoin="round"/>
<path d="M57.4999 69V70.5H58.9999L58.9999 69L57.4999 69ZM12.9999 69H11.4999V70.5H12.9999V69ZM28.0953 59.5563L27.438 60.9046L28.2826 61.3163L29.0216 60.7361L28.0953 59.5563ZM44.4218 60.9749L43.3069 61.9784L44.0768 62.8338L45.1024 62.3116L44.4218 60.9749ZM57.4999 67.5H12.9999V70.5H57.4999V67.5ZM14.4999 69C14.4999 69 14.4999 69 14.4999 68.9999C14.4999 68.9999 14.4999 68.9999 14.4999 68.9999H11.4999C11.4999 68.9999 11.4999 68.9999 11.4999 69C11.4999 69 11.4999 69 11.4999 69H14.4999ZM14.4999 68.9999C14.4999 64.0293 18.5293 59.9999 23.4999 59.9999V56.9999C16.8725 56.9999 11.4999 62.3725 11.4999 68.9999H14.4999ZM23.4999 59.9999C24.9152 59.9999 26.2503 60.3255 27.438 60.9046L28.7526 58.208C27.1644 57.4337 25.3807 56.9999 23.4999 56.9999V59.9999ZM29.0216 60.7361C30.8063 59.3348 33.0535 58.5 35.4999 58.5V55.5C32.3581 55.5 29.4632 56.5751 27.169 58.3765L29.0216 60.7361ZM35.4999 58.5C38.5989 58.5 41.3828 59.8407 43.3069 61.9784L45.5367 59.9714C43.0677 57.2283 39.4846 55.5 35.4999 55.5V58.5ZM45.1024 62.3116C46.1207 61.7931 47.2739 61.5001 48.4999 61.5001V58.5001C46.7899 58.5001 45.1714 58.91 43.7412 59.6382L45.1024 62.3116ZM48.4999 61.5001C52.642 61.5001 55.9998 64.8579 55.9999 69L58.9999 69C58.9998 63.2011 54.2988 58.5001 48.4999 58.5001V61.5001Z" fill="#313E57"/>
</svg>
