<svg width="72" height="72" viewBox="0 0 72 72" fill="none" xmlns="http://www.w3.org/2000/svg">
<path d="M35 31V36.3333C35 41.1198 31.1198 45 26.3333 44.9999L17.5 44.9999C15.567 44.9999 14 43.4329 14 41.4999V41.4999C14 39.5669 12.433 37.9999 10.5 37.9999H5" stroke="#D9C07E" stroke-width="3" stroke-linecap="round" stroke-linejoin="round"/>
<path d="M35 39V53.2222C35 56.4132 37.5868 59 40.7778 59H44.5C46.1569 59 47.5 60.3432 47.5 62V62C47.5 63.6569 48.8431 65 50.5 65H65" stroke="#D9C07E" stroke-width="3" stroke-linecap="round" stroke-linejoin="round"/>
<path d="M35 41V46.2222C35 49.4132 37.5868 52 40.7778 52H43.2222C46.4132 52 49 49.4132 49 46.2222V43.5C49 41.2909 50.7909 39.5 53 39.5H53.75C55.5449 39.5 57 40.9551 57 42.75V42.75C57 44.5449 58.4551 46 60.25 46H68" stroke="#D9C07E" stroke-width="3" stroke-linecap="round" stroke-linejoin="bevel"/>
<path d="M35 34.5V49C35 51.4853 32.9853 53.5 30.5 53.5V53.5C28.0147 53.5 26 55.5147 26 58V58.25C26 60.8733 23.8734 63 21.25 63H15.5C14.1193 63 13 61.8807 13 60.5V60.5C13 59.1193 11.8807 58 10.5 58H8.5C6.01472 58 4 60.0147 4 62.5V66" stroke="#D9C07E" stroke-width="3" stroke-linecap="round" stroke-linejoin="bevel"/>
<path d="M9 58V55.8889C9 54.2934 7.7066 53 6.11111 53H3" stroke="#D9C07E" stroke-width="3" stroke-linecap="round" stroke-linejoin="round"/>
<path d="M18 63V59.5C18 58.6716 18.6716 58 19.5 58V58C20.3284 58 21 57.3284 21 56.5V55.5C21 54.1193 19.8807 53 18.5 53H17.8889C16.2934 53 15 51.7066 15 50.1111V50" stroke="#D9C07E" stroke-width="3" stroke-linecap="round" stroke-linejoin="round"/>
<path d="M40 59V62.5C40 63.8807 38.8807 65 37.5 65H36.5C35.6716 65 35 64.3284 35 63.5V63.5C35 62.6716 34.3284 62 33.5 62H31" stroke="#D9C07E" stroke-width="3" stroke-linecap="round" stroke-linejoin="round"/>
<path d="M23 45V41.5C23 40.3954 23.8954 39.5 25 39.5V39.5C26.1046 39.5 27 38.6046 27 37.5V36" stroke="#D9C07E" stroke-width="3" stroke-linecap="round" stroke-linejoin="round"/>
<path d="M49 47H50.5C51.8807 47 53 48.1193 53 49.5V49.5C53 50.8807 54.1193 52 55.5 52H58" stroke="#D9C07E" stroke-width="3" stroke-linecap="round" stroke-linejoin="round"/>
<path d="M42 52V46C42 45.4477 41.5523 45 41 45V45C40.4477 45 40 44.5523 40 44V42.5C40 41.1193 41.1193 40 42.5 40H45" stroke="#D9C07E" stroke-width="3" stroke-linecap="round" stroke-linejoin="round"/>
<path d="M55 65C55 64.736 55 63.5865 55 62.4999C55 61.6715 55.6716 61 56.5 61V61C57.3284 61 58 60.3284 58 59.5V57" stroke="#D9C07E" stroke-width="3" stroke-linecap="round" stroke-linejoin="round"/>
<path d="M18.3808 21.8441C21.5463 25.0095 26.6785 25.0095 29.8439 21.8441C33.0093 18.6786 33.0093 13.5464 29.8439 10.381C29.1714 9.70853 27.8617 9.0442 26.0343 8.45874C24.2588 7.88992 22.1923 7.45544 20.1997 7.12993C18.2138 6.8055 16.3373 6.59501 14.9549 6.46568C14.7658 6.44799 14.5862 6.43184 14.417 6.41713C14.4317 6.58634 14.4478 6.76598 14.4655 6.95504C14.5948 8.33742 14.8053 10.214 15.1298 12.1999C15.4553 14.1925 15.8898 16.259 16.4586 18.0344C17.044 19.8618 17.7084 21.1716 18.3808 21.8441Z" stroke="#313E57" stroke-width="3"/>
<path d="M34.9998 34V29.0546C34.9998 25.2627 33.1394 21.7121 30.0217 19.5537L21.9998 14" stroke="#313E57" stroke-width="3" stroke-linecap="round" stroke-linejoin="round"/>
<path d="M49.9849 23.5504C47.6168 25.9185 43.7773 25.9185 41.4092 23.5504C39.0411 21.1823 39.0411 17.3429 41.4092 14.9748C41.8824 14.5017 42.8518 13.9971 44.2809 13.5393C45.6581 13.0981 47.2683 12.759 48.8294 12.504C50.3839 12.25 51.854 12.0851 52.9378 11.9837C52.9519 11.9824 52.9659 11.9811 52.9799 11.9798C52.9786 11.9937 52.9773 12.0078 52.9759 12.0219C52.8746 13.1056 52.7096 14.5757 52.4557 16.1302C52.2006 17.6914 51.8616 19.3015 51.4203 20.6787C50.9625 22.1078 50.458 23.0773 49.9849 23.5504Z" stroke="#313E57" stroke-width="3"/>
<path d="M35 34V32.0546C35 28.2627 36.8603 24.7121 39.978 22.5537L48 17" stroke="#313E57" stroke-width="3" stroke-linecap="round" stroke-linejoin="round"/>
</svg>
