<svg width="80" height="80" viewBox="0 0 80 80" fill="none" xmlns="http://www.w3.org/2000/svg">
<path d="M0 30C0 13.4315 13.4315 0 30 0H80V50C80 66.5685 66.5685 80 50 80H0V30Z" fill="#0BA246"/>
<path d="M0 40H80V60C80 71.0457 71.0457 80 60 80H0V40Z" fill="#FFF200"/>
<mask id="mask0_1935_12936" style="mask-type:alpha" maskUnits="userSpaceOnUse" x="0" y="0" width="80" height="80">
<path d="M0 30C0 13.4315 13.4315 0 30 0H80V50C80 66.5685 66.5685 80 50 80H0V30Z" fill="#0BA246"/>
</mask>
<g mask="url(#mask0_1935_12936)">
<ellipse cx="38.9279" cy="40" rx="25.1753" ry="25.5155" fill="white"/>
<path fill-rule="evenodd" clip-rule="evenodd" d="M57.9132 44.308L60.5463 46.9011L63.1795 44.308L60.5463 41.7148L57.9132 44.308ZM53.7511 48.4068L56.3842 51L59.0174 48.4068L56.3842 45.8137L53.7511 48.4068ZM49.589 52.5057L52.2221 55.0989L54.8553 52.5057L52.2221 49.9125L49.589 52.5057ZM45.5118 56.5209L48.145 59.1141L50.7781 56.5209L48.145 53.9278L45.5118 56.5209ZM41.3497 60.6198L43.9828 63.2129L46.616 60.6198L43.9828 58.0266L41.3497 60.6198ZM57.9132 36.1939L60.5463 38.7871L63.1795 36.1939L60.5463 33.6008L57.9132 36.1939ZM53.7511 40.2928L56.3842 42.8023L58.9325 40.2928L56.2993 37.6996L53.7511 40.2928ZM49.589 44.308L52.2221 46.9011L54.8553 44.308L52.2221 41.7148L49.589 44.308ZM45.5118 48.4068L48.145 51L50.7781 48.4068L48.145 45.8137L45.5118 48.4068ZM41.3497 52.5057L43.9828 55.0989L46.616 52.5057L43.9828 49.9125L41.3497 52.5057ZM37.2725 56.5209L39.9057 59.1141L42.5389 56.5209L39.9057 53.9278L37.2725 56.5209ZM33.1104 60.6198L35.7436 63.2129L38.3767 60.6198L35.7436 58.0266L33.1104 60.6198ZM53.7511 32.1787L56.3842 34.7719L59.0174 32.1787L56.3842 29.5855L53.7511 32.1787ZM49.589 36.1939L52.2221 38.7871L54.8553 36.1939L52.2221 33.6008L49.589 36.1939ZM45.5118 40.2928L48.145 42.8859L50.7781 40.2928L48.145 37.6996L45.5118 40.2928ZM41.3497 44.308L43.9828 46.9011L46.616 44.308L43.9828 41.7148L41.3497 44.308ZM37.2725 48.4068L39.9057 51L42.5389 48.4068L39.9057 45.8137L37.2725 48.4068ZM33.1104 52.5057L35.7436 55.0989L38.3767 52.5057L35.7436 49.9125L33.1104 52.5057ZM29.0332 56.5209L31.6664 59.1141L34.2996 56.5209L31.6664 53.9278L29.0332 56.5209ZM29.0332 61.6236L30.0525 60.6198L27.4194 58.0266L25.7206 59.6996C26.8248 60.4525 27.929 61.038 29.0332 61.6236ZM53.7511 23.981L56.3842 26.5741L58.3379 24.6502C57.5734 23.73 56.724 22.8935 55.7896 22.057L53.7511 23.981ZM49.589 28.0798L52.2221 30.673L54.8553 28.0798L52.2221 25.4867L49.589 28.0798ZM45.5118 32.1787L48.145 34.7719L50.7781 32.1787L48.145 29.5855L45.5118 32.1787ZM41.3497 36.1939L43.9828 38.7871L46.616 36.1939L43.9828 33.6008L41.3497 36.1939ZM37.2725 40.2928L39.9057 42.8859L42.5389 40.2928L39.9057 37.6996L37.2725 40.2928ZM33.1104 44.308L35.7436 46.9011L38.3767 44.308L35.7436 41.7148L33.1104 44.308ZM29.0332 48.4068L31.6664 51L34.2996 48.4068L31.6664 45.8137L29.0332 48.4068ZM24.8711 52.5057L27.5043 55.0989L30.1375 52.5057L27.5043 49.9125L24.8711 52.5057ZM24.0217 58.4449L25.9754 56.5209L23.3422 53.9278L21.3886 55.8517C22.238 56.7719 23.0874 57.6084 24.0217 58.4449ZM45.5118 23.981L48.145 26.5741L50.7781 23.981L48.145 21.3878L45.5118 23.981ZM41.3497 28.0798L43.9828 30.673L46.616 28.0798L43.9828 25.4867L41.3497 28.0798ZM37.2725 32.1787L39.9057 34.7719L42.5389 32.1787L39.9057 29.5855L37.2725 32.1787ZM33.1104 36.1939L35.7436 38.7871L38.3767 36.1939L35.7436 33.6008L33.1104 36.1939ZM29.0332 40.2928L31.6664 42.8859L34.2996 40.2928L31.6664 37.6996L29.0332 40.2928ZM24.8711 44.308L27.5043 46.9011L30.1375 44.308L27.5043 41.7148L24.8711 44.308ZM20.709 48.4068L23.3422 51L25.9754 48.4068L23.3422 45.8137L20.709 48.4068ZM20.0295 54.2623L21.8133 52.5057L19.1801 49.9125L17.9909 51.0836C18.5855 52.1711 19.2651 53.2585 20.0295 54.2623ZM41.3497 19.9658L43.9828 22.5589L46.616 19.9658L43.9828 17.3726L41.3497 19.9658ZM37.2725 23.981L39.9057 26.5741L42.5389 23.981L39.9057 21.3878L37.2725 23.981ZM33.1104 28.0798L35.7436 30.673L38.3767 28.0798L35.7436 25.4867L33.1104 28.0798ZM29.0332 32.1787L31.6664 34.7719L34.2996 32.1787L31.6664 29.5855L29.0332 32.1787ZM24.8711 36.1939L27.5043 38.7871L30.1375 36.1939L27.5043 33.6008L24.8711 36.1939ZM20.709 40.2928L23.3422 42.8859L25.9754 40.2928L23.3422 37.6996L20.709 40.2928ZM16.6319 44.308L19.265 46.9011L21.8982 44.308L19.265 41.7148L16.6319 44.308ZM33.1104 19.9658L35.7436 22.5589L38.3767 19.9658L35.7436 17.3726L33.1104 19.9658ZM29.0332 23.981L31.6664 26.5741L34.2996 23.981L31.6664 21.3878L29.0332 23.981ZM24.8711 28.0798L27.5043 30.673L30.1375 28.0798L27.5043 25.4867L24.8711 28.0798ZM20.709 32.1787L23.3422 34.7719L25.9754 32.1787L23.3422 29.5855L20.709 32.1787ZM16.6319 36.1939L19.265 38.7871L21.8982 36.1939L19.265 33.6008L16.6319 36.1939ZM15.3578 42.5513L17.6512 40.2928L15.2728 37.9506C15.1879 38.6198 15.1879 39.289 15.1879 39.9582C15.2728 40.8783 15.2728 41.7148 15.3578 42.5513ZM25.4657 20.4677L27.5043 22.4753L30.1375 19.8821L28.7784 18.5437C27.5043 19.1293 26.485 19.7985 25.4657 20.4677ZM21.1338 24.3992L23.3422 26.5741L25.9754 23.981L23.7669 21.8061C22.7476 22.6426 21.8982 23.4791 21.1338 24.3992ZM17.8211 29.2509L19.1801 30.5894L21.8133 27.9962L19.7747 25.9886C19.0102 27.076 18.4156 28.1635 17.8211 29.2509ZM42.1142 16.2015L39.8208 18.4601L37.4424 16.1179C38.1219 16.0342 38.8015 16.0342 39.481 16.0342C40.4153 16.0342 41.2648 16.1179 42.1142 16.2015ZM48.7395 17.7909L48.06 18.4601L46.701 17.1217C47.3805 17.289 48.06 17.5399 48.7395 17.7909ZM54.0059 20.7186L52.2221 22.4753L49.589 19.8821L50.7781 18.711C51.9673 19.3802 52.9866 19.9658 54.0059 20.7186ZM61.4807 29.6692L60.4614 30.673L57.8282 28.0798L59.5271 26.4068C60.2915 27.4106 60.971 28.4981 61.4807 29.6692ZM62.8397 32.9316L61.9903 32.0951L62.415 31.6768C62.5849 32.1787 62.6699 32.5133 62.8397 32.9316ZM63.7741 42.0494L61.9903 40.2928L63.859 38.4525C63.859 38.9544 63.944 39.4563 63.944 39.9582C63.859 40.711 63.859 41.3802 63.7741 42.0494ZM62.2451 48.6578L61.9903 48.4068L62.5 47.9049C62.415 48.1559 62.3301 48.4068 62.2451 48.6578ZM59.3572 53.9278L57.9132 52.5057L60.5463 49.9125L61.3957 50.749C60.7162 51.8365 60.1216 52.924 59.3572 53.9278ZM55.4499 58.1939L53.7511 56.5209L56.3842 53.9278L58.083 55.6008C57.2336 56.5209 56.3842 57.3574 55.4499 58.1939ZM50.4384 61.4563L49.589 60.6198L52.2221 58.0266L53.6661 59.4487C52.6468 60.2015 51.6275 60.8707 50.4384 61.4563ZM47.5504 62.6274L48.06 62.1255L48.3148 62.3764C48.06 62.4601 47.8052 62.5437 47.5504 62.6274ZM38.037 63.8821L39.8208 62.1255L41.6045 63.8821C40.925 63.9658 40.2455 63.9658 39.5659 63.9658C39.0563 63.9658 38.5466 63.9658 38.037 63.8821ZM31.1568 62.4601L31.5815 62.0418L32.346 62.7947C32.0062 62.7947 31.5815 62.6274 31.1568 62.4601ZM16.2921 47.0684L17.6512 48.4068L16.9717 49.076C16.8018 48.4068 16.5469 47.7376 16.2921 47.0684ZM16.8867 31.3422L17.6512 32.0951L16.0373 33.6844C16.2921 32.9316 16.5469 32.0951 16.8867 31.3422ZM33.1954 16.8707L31.5815 18.4601L30.817 17.7072C31.5815 17.3726 32.346 17.1217 33.1954 16.8707ZM39.5659 7C43.1335 8.1711 44.9172 10.2624 46.2763 12.4373C48.2299 11.1825 50.5233 10.2624 54.0908 10.2624C56.8089 12.8555 57.4885 15.4487 57.7433 18.0418C60.0367 17.7909 62.5 17.8745 65.8127 19.3802C67.0868 22.8935 66.5771 25.4867 65.6428 27.9125C67.8512 28.6654 69.9748 29.8365 72.2682 32.597C71.8435 36.2776 70.2296 38.4525 68.3609 40.2928C69.9748 41.8821 71.5037 43.8897 72.2682 47.3194C70.3145 50.4981 67.8513 51.7528 65.388 52.5057C66.1524 54.597 66.5771 57.0228 65.8127 60.5361C62.6699 62.5437 59.8668 62.6274 57.3186 62.2928C57.0638 64.5513 56.3842 66.8935 54.1758 69.7376C50.4384 70.1559 47.8901 69.1521 45.7666 67.6464C44.5774 69.5703 42.9636 71.4106 39.6509 73C36.0833 71.8289 34.2996 69.7376 32.9405 67.5627C30.9869 68.8175 28.6935 69.7376 25.126 69.7376C22.4079 67.1445 21.7283 64.5513 21.4735 61.9582C19.1801 62.2091 16.7168 62.1255 13.4041 60.6198C12.13 57.1065 12.6397 54.5133 13.574 52.0874C11.3656 51.3346 9.24201 50.1635 6.94861 47.403C7.37331 43.7224 8.9872 41.5475 10.8559 39.7072C9.24202 38.1179 7.71308 36.1103 6.94861 32.6806C8.90225 29.5019 11.3655 28.2471 13.8288 27.4943C13.0644 25.403 12.6397 22.9772 13.4041 19.4639C16.5469 17.4563 19.35 17.3726 21.8982 17.7072C22.153 15.4487 22.8326 13.1065 25.041 10.2624C28.7784 9.84411 31.3267 10.8479 33.4502 12.3536C34.7243 10.4297 36.3382 8.58935 39.5659 7Z" fill="#313E57"/>
</g>
</svg>
