<svg width="24" height="24" viewBox="0 0 24 24" fill="none" xmlns="http://www.w3.org/2000/svg">
<g clip-path="url(#clip0_2311_10421)">
<path fill-rule="evenodd" clip-rule="evenodd" d="M11.9662 0.337891C12.8113 0.337891 13.5211 1.04775 13.5211 1.92662V7.77451C13.5211 8.65338 12.8113 9.36324 11.9324 9.36324C11.0535 9.36324 10.3437 8.65338 10.3437 7.77451V1.92662C10.3775 1.04775 11.0873 0.337891 11.9662 0.337891Z" fill="#00A1E4"/>
<path fill-rule="evenodd" clip-rule="evenodd" d="M0.0676052 8.95766C0.338028 8.1464 1.2169 7.67316 2.06197 7.94358L7.60563 9.73513C8.4169 10.0056 8.89014 10.8844 8.61972 11.7295C8.3493 12.5408 7.47042 13.014 6.62535 12.7436L1.08169 10.952C0.270422 10.6816 -0.202817 9.80273 0.0676052 8.95766Z" fill="#00A1E4"/>
<path fill-rule="evenodd" clip-rule="evenodd" d="M4.59718 22.9178C3.88732 22.4108 3.75211 21.4305 4.25916 20.7206L7.70704 15.9882C8.21408 15.2784 9.19437 15.1432 9.90422 15.6502C10.6141 16.1573 10.7493 17.1375 10.2423 17.8474L6.79437 22.5798C6.28732 23.2897 5.30704 23.4249 4.59718 22.9178Z" fill="#00A1E4"/>
<path fill-rule="evenodd" clip-rule="evenodd" d="M19.3014 22.9179C18.5915 23.4249 17.6113 23.2559 17.1042 22.5799L13.6563 17.8475C13.1493 17.1376 13.3183 16.1573 13.9944 15.6503C14.7042 15.1432 15.6845 15.3123 16.1916 15.9883L19.6394 20.7207C20.1465 21.4306 19.9775 22.4108 19.3014 22.9179Z" fill="#00A1E4"/>
<path fill-rule="evenodd" clip-rule="evenodd" d="M23.831 8.95766C24.1014 9.76893 23.6282 10.6816 22.8169 10.952L17.2394 12.7436C16.4282 13.014 15.5155 12.5408 15.2451 11.7295C14.9746 10.9182 15.4479 10.0056 16.2592 9.73513L21.8028 7.94358C22.6817 7.67316 23.5606 8.1464 23.831 8.95766Z" fill="#00A1E4"/>
</g>
<defs>
<clipPath id="clip0_2311_10421">
<rect width="24" height="24" fill="white"/>
</clipPath>
</defs>
</svg>
