<svg width="72" height="72" viewBox="0 0 72 72" fill="none" xmlns="http://www.w3.org/2000/svg">
<path d="M10 19V64C10 66.2091 11.7909 68 14 68H58C60.2091 68 62 66.2091 62 64V12C62 7.58172 58.4183 4 54 4V4" stroke="#313E57" stroke-width="3"/>
<path d="M20 29H52" stroke="#313E57" stroke-width="3" stroke-linecap="round"/>
<path d="M20 37H52" stroke="#313E57" stroke-width="3" stroke-linecap="round"/>
<path d="M4 11C4 7.13401 7.13401 4 11 4H54V4C49.5817 4 46 7.58172 46 12V19H4V11Z" stroke="#313E57" stroke-width="3" stroke-linecap="round" stroke-linejoin="round"/>
<path d="M44.2005 46.5708C45.0749 45.3216 46.9251 45.3216 47.7995 46.5708C48.2892 47.2704 49.1399 47.6227 49.9808 47.4743C51.4825 47.2093 52.7907 48.5175 52.5257 50.0192C52.3773 50.8601 52.7296 51.7108 53.4292 52.2005C54.6784 53.0749 54.6784 54.9251 53.4292 55.7995C52.7296 56.2892 52.3773 57.1399 52.5257 57.9808C52.7907 59.4825 51.4825 60.7907 49.9808 60.5257C49.1399 60.3773 48.2892 60.7296 47.7995 61.4292C46.9251 62.6784 45.0749 62.6784 44.2005 61.4292C43.7108 60.7296 42.8601 60.3773 42.0192 60.5257C40.5175 60.7907 39.2093 59.4825 39.4743 57.9808C39.6227 57.1399 39.2704 56.2892 38.5708 55.7995C37.3216 54.9251 37.3216 53.0749 38.5708 52.2005C39.2704 51.7108 39.6227 50.8601 39.4743 50.0192C39.2093 48.5175 40.5175 47.2093 42.0192 47.4743C42.8601 47.6227 43.7108 47.2704 44.2005 46.5708Z" fill="#D9C07E"/>
</svg>
