<svg width="72" height="72" viewBox="0 0 72 72" fill="none" xmlns="http://www.w3.org/2000/svg">
<path d="M64 28.423V16.3945C64 11.7549 60.8435 7.71099 56.2874 6.83447C50.5799 5.73645 42.6717 4.5 36 4.5C29.3283 4.5 21.4201 5.73645 15.7126 6.83447C11.1565 7.71099 8 11.7549 8 16.3945V28.423C8 42.9714 15.899 56.3727 28.6274 63.4187L36 67.5L43.3726 63.4187C56.101 56.3727 64 42.9714 64 28.423Z" stroke="#313E57" stroke-width="3"/>
<path d="M46.7355 41.1881C41.2037 46.7199 32.2348 46.7199 26.703 41.1881C21.1712 35.6563 21.1712 26.6875 26.703 21.1556C32.2348 15.6238 53.413 14.4782 53.413 14.4782C53.413 14.4782 52.2673 35.6563 46.7355 41.1881Z" fill="#D9C07E"/>
<path d="M20 48L40 28" stroke="#313E57" stroke-width="3" stroke-linecap="round" stroke-linejoin="round"/>
</svg>
