<svg width="72" height="72" viewBox="0 0 72 72" fill="none" xmlns="http://www.w3.org/2000/svg">
<path fill-rule="evenodd" clip-rule="evenodd" d="M60.2133 17.786C60.7991 18.3718 60.7991 19.3216 60.2133 19.9073L53.8493 26.2713C53.2635 26.8571 52.3138 26.8571 51.728 26.2713C51.1422 25.6855 51.1422 24.7358 51.728 24.15L58.092 17.786C58.6777 17.2002 59.6275 17.2002 60.2133 17.786ZM38.9998 53.999C34.0927 53.999 29.736 51.6427 26.9993 47.9999L48.0006 26.9986C51.6435 29.7352 53.9998 34.0919 53.9998 38.999C53.9998 47.2833 47.284 53.999 38.9998 53.999ZM40.4999 58.4991C40.4999 57.6707 39.8283 56.9991 38.9999 56.9991C38.1715 56.9991 37.4999 57.6707 37.4999 58.4991V67.4991C37.4999 68.3275 38.1715 68.9991 38.9999 68.9991C39.8283 68.9991 40.4999 68.3275 40.4999 67.4991V58.4991ZM69 38.9989C69 39.8273 68.3284 40.4989 67.5 40.4989H58.5C57.6715 40.4989 57 39.8273 57 38.9989C57 38.1705 57.6715 37.4989 58.5 37.4989H67.5C68.3284 37.4989 69 38.1705 69 38.9989ZM26.272 53.8488C26.8578 53.263 26.8578 52.3132 26.272 51.7275C25.6862 51.1417 24.7365 51.1417 24.1507 51.7275L17.7868 58.0914C17.201 58.6772 17.201 59.627 17.7868 60.2127C18.3725 60.7985 19.3223 60.7985 19.9081 60.2127L26.272 53.8488ZM58.092 60.2121C58.6777 60.7978 59.6275 60.7978 60.2133 60.2121C60.7991 59.6263 60.7991 58.6765 60.2133 58.0907L53.8493 51.7268C53.2635 51.141 52.3138 51.141 51.728 51.7268C51.1422 52.3126 51.1422 53.2623 51.728 53.8481L58.092 60.2121Z" fill="#D9C07E"/>
<path fill-rule="evenodd" clip-rule="evenodd" d="M51.5086 17.4918C51.9225 17.0219 52.0121 16.3224 51.6817 15.7501C51.2674 15.0327 50.3501 14.7869 49.6326 15.2011L43.6754 18.6404L44.9344 13.9421C45.1488 13.1419 44.6739 12.3194 43.8737 12.105C43.0735 11.8906 42.251 12.3654 42.0366 13.1656L40.0012 20.7618L28.5001 27.402V14.1213L34.0607 8.56066C34.6465 7.97487 34.6465 7.02513 34.0607 6.43934C33.4749 5.85355 32.5251 5.85355 31.9394 6.43934L28.5001 9.87863V3C28.5001 2.17157 27.8285 1.5 27.0001 1.5C26.1716 1.5 25.5001 2.17157 25.5001 3V9.87873L22.0607 6.43934C21.4749 5.85355 20.5252 5.85355 19.9394 6.43934C19.3536 7.02513 19.3536 7.97487 19.9394 8.56066L25.5001 14.1214V27.4018L13.9989 20.7616L11.9636 13.1656C11.7492 12.3654 10.9267 11.8905 10.1265 12.105C9.32626 12.3194 8.85139 13.1419 9.0658 13.9421L10.3247 18.6403L4.36745 15.2009C3.65001 14.7866 2.73262 15.0325 2.31841 15.7499C1.90419 16.4673 2.15001 17.3847 2.86745 17.7989L8.82472 21.2384L4.12646 22.4973C3.32626 22.7117 2.85139 23.5342 3.0658 24.3344C3.28021 25.1346 4.10272 25.6095 4.90292 25.395L12.499 23.3597L24.0001 29.9999L12.4987 36.6402L4.90289 34.6049C4.10269 34.3905 3.28018 34.8654 3.06577 35.6656C2.85136 36.4658 3.32623 37.2883 4.12643 37.5027L8.82446 38.7616L2.86744 42.2008C2.15 42.6151 1.90419 43.5324 2.3184 44.2499C2.73261 44.9673 3.65 45.2131 4.36744 44.7989L10.3247 41.3595L9.06577 46.0579C8.85135 46.8581 9.32623 47.6806 10.1264 47.895C10.9266 48.1094 11.7491 47.6346 11.9635 46.8344L13.9989 39.2382L25.4999 32.5981L25.4999 43.5004L28.4999 40.5004L28.4999 32.5981L33.5098 35.4906L35.7059 33.2944L30 30.0001L41.5014 23.3597L44.7659 24.2345L47.2154 21.785L45.1756 21.2384L51.1326 17.7991C51.2208 17.7482 51.3019 17.6897 51.3756 17.6248L51.5086 17.4918Z" fill="#313E57"/>
</svg>
