<svg width="72" height="72" viewBox="0 0 72 72" fill="none" xmlns="http://www.w3.org/2000/svg">
<path d="M61.1484 45.9999C60.065 42.2457 56.6032 39.5 52.5001 39.5C52.4906 39.5 52.4811 39.5 52.4716 39.5C50.1329 36.7469 46.6455 35 42.7501 35C38.8084 35 35.2845 36.7887 32.9457 39.5987C32.4732 39.5336 31.9906 39.5 31.5001 39.5C29.0887 39.5 26.8671 40.3129 25.0945 41.6796" stroke="#313E57" stroke-width="3"/>
<path d="M2.00012 67.5L8.59384 63.6959C12.5022 61.4411 17.3627 61.6538 21.0591 64.2413V64.2413C29.456 70.1191 40.6076 70.2112 49.1003 64.4728L68.2884 51.5079C70.3225 50.1335 70.8233 47.3525 69.3964 45.3548V45.3548C68.0515 43.4719 65.4708 42.9659 63.5144 44.2015L48.0001 54.0001" stroke="#313E57" stroke-width="3" stroke-linecap="round" stroke-linejoin="round"/>
<path d="M2.00012 47L9.89889 43.1574C16.4976 39.9472 24.2819 40.3473 30.5167 44.2172L32.5004 45.4485C34.1422 46.4675 36.0073 47.0719 37.9347 47.2096L45.6335 47.7595C47.5304 47.895 49.0001 49.4734 49.0001 51.3752V51.3752C49.0001 53.3771 47.3772 55 45.3753 55H18.0001" stroke="#313E57" stroke-width="3" stroke-linecap="round" stroke-linejoin="round"/>
<path d="M63.456 27.1127C58.7697 31.799 51.1717 31.799 46.4854 27.1127C41.7991 22.4264 41.7991 14.8284 46.4854 10.1421C51.1717 5.45584 69.1128 4.48528 69.1128 4.48528C69.1128 4.48528 68.1423 22.4264 63.456 27.1127Z" fill="#D9C07E"/>
<path d="M42 35V33.8556C42 30.1747 43.7537 26.714 46.722 24.5372L57 17" stroke="#313E57" stroke-width="3" stroke-linecap="round" stroke-linejoin="round"/>
</svg>
