<svg width="183" height="104" viewBox="0 0 183 104" fill="none" xmlns="http://www.w3.org/2000/svg">
<g clip-path="url(#clip0_1935_12935)">
<path fill-rule="evenodd" clip-rule="evenodd" d="M28.6206 0H183V75.4252C183 91.1262 170.106 104 154.379 104H0V28.5748C0 12.8738 12.8944 0 28.6206 0Z" fill="#0BA246"/>
<path fill-rule="evenodd" clip-rule="evenodd" d="M183 50.5864V75.4253C183 91.1262 170.106 104 154.379 104H0V50.5864H183Z" fill="#FFF200"/>
<path fill-rule="evenodd" clip-rule="evenodd" d="M79.2376 43.266V11.3593H84.6482V38.167H99.2619V43.266H79.2376ZM51.3249 35.9457C52.7913 37.6117 54.7634 38.5204 57.2918 38.5204C59.8201 38.5204 61.7922 37.6622 63.2586 35.9457C64.725 34.2796 65.4329 31.9068 65.4329 29.0292V11.3593H70.793V29.2816C70.793 33.8758 69.5288 37.4097 67.0005 39.8835C64.4722 42.4078 61.2359 43.6194 57.2412 43.6194C53.2464 43.6194 50.0102 42.4078 47.4819 39.8835C44.9535 37.4097 43.6894 33.9262 43.6894 29.2816V11.3593H49.1V29.0292C49.1 31.9573 49.8585 34.2796 51.3249 35.9457ZM21.8952 16.3573V25.1418H36.0538V30.1398H21.8952V43.266H16.4846V11.3593H37.7731L37.7225 16.3573H21.8952Z" fill="black"/>
<path fill-rule="evenodd" clip-rule="evenodd" d="M116.96 43.266H110.943L98.0989 11.3593H104.116L113.977 35.1884L123.787 11.3593H129.855L116.96 43.266Z" fill="black"/>
<path fill-rule="evenodd" clip-rule="evenodd" d="M146.036 87.8447H142.446V66.5398H148.058L154.48 79.9184L160.902 66.5398H166.465V87.8447H162.874V71.2349L155.441 86.0272H153.419L145.985 71.2349V87.8447H146.036ZM123.787 82.9476C124.747 84.0582 126.062 84.6641 127.731 84.6641C129.399 84.6641 130.714 84.1087 131.675 82.9476C132.636 81.8369 133.141 80.2718 133.141 78.3029V66.5398H136.732V78.4544C136.732 81.534 135.872 83.8563 134.203 85.5223C132.535 87.1883 130.36 87.9961 127.731 87.9961C125.101 87.9961 122.927 87.1883 121.258 85.5223C119.59 83.8563 118.73 81.534 118.73 78.4544V66.5398H122.32V78.3029C122.32 80.2718 122.826 81.8369 123.787 82.9476ZM109.476 66.5398H113.067V87.8447H109.476V66.5398ZM83.1312 87.8447H79.541V66.5398H85.1538L91.5758 79.9184L97.9977 66.5398H103.56V87.8447H99.9698V71.2349L92.5365 85.9767H90.5139L83.0806 71.1845V87.8447H83.1312ZM74.5349 66.5398V69.9223H63.1574V75.5767H73.3719V78.7573H63.1574V84.4621H74.8889V87.8447H59.5672V66.5398H74.5349ZM45.4592 77.4446C47.4818 77.4446 48.8977 77.1417 49.6056 76.4854C50.3136 75.8291 50.7181 74.8194 50.7181 73.4563C50.7181 72.0932 50.3641 71.134 49.6056 70.5786C48.8471 70.0738 47.4818 69.8213 45.5603 69.8213H41.0093V77.4446H45.4592ZM54.3589 73.4563C54.3589 76.9398 52.8419 79.1612 49.7573 80.0699L55.3196 87.7942H50.7687L45.6615 80.6252H40.9588V87.8447H37.3686V66.5398H45.3075C48.5943 66.5398 50.8698 67.0951 52.2857 68.2058C53.7015 69.3165 54.3589 71.0835 54.3589 73.4563ZM24.2719 78.3534C26.2439 78.3534 27.6092 77.9495 28.3677 77.1922C29.0757 76.4349 29.4296 75.3243 29.4296 73.8602C29.4296 72.3961 28.9745 71.3864 28.0643 70.7301C27.1541 70.1243 25.7383 69.8213 23.7662 69.8213H20.1254V78.3534H24.2719ZM23.8168 66.5398C27.053 66.5398 29.3791 67.1456 30.8961 68.4078C32.413 69.6699 33.121 71.5379 33.121 74.1126C33.121 76.6874 32.3625 78.6058 30.8455 79.767C29.3285 80.9786 27.0024 81.5845 23.8673 81.5845H20.0748V87.8447H16.4846V66.5398H23.8168Z" fill="black"/>
<path fill-rule="evenodd" clip-rule="evenodd" d="M160.195 29.1806L161.762 30.7456L163.33 29.1806L161.762 27.6155L160.195 29.1806ZM157.717 31.6544L159.284 33.2194L160.852 31.6544L159.284 30.0893L157.717 31.6544ZM155.239 34.1281L156.807 35.6932L158.374 34.1281L156.807 32.5631L155.239 34.1281ZM152.812 36.5514L154.379 38.1165L155.947 36.5514L154.379 34.9864L152.812 36.5514ZM150.334 39.0252L151.902 40.5903L153.469 39.0252L151.902 37.4602L150.334 39.0252ZM160.195 24.2835L161.762 25.8485L163.33 24.2835L161.762 22.7184L160.195 24.2835ZM157.717 26.7573L159.284 28.2718L160.801 26.7573L159.234 25.1922L157.717 26.7573ZM155.239 29.1806L156.807 30.7456L158.374 29.1806L156.807 27.6155L155.239 29.1806ZM152.812 31.6544L154.379 33.2194L155.947 31.6544L154.379 30.0893L152.812 31.6544ZM150.334 34.1281L151.902 35.6932L153.469 34.1281L151.902 32.5631L150.334 34.1281ZM147.907 36.5514L149.474 38.1165L151.042 36.5514L149.474 34.9864L147.907 36.5514ZM145.429 39.0252L146.997 40.5903L148.564 39.0252L146.997 37.4602L145.429 39.0252ZM157.717 21.8602L159.284 23.4252L160.852 21.8602L159.284 20.2951L157.717 21.8602ZM155.239 24.2835L156.807 25.8485L158.374 24.2835L156.807 22.7184L155.239 24.2835ZM152.812 26.7573L154.379 28.3223L155.947 26.7573L154.379 25.1922L152.812 26.7573ZM150.334 29.1806L151.902 30.7456L153.469 29.1806L151.902 27.6155L150.334 29.1806ZM147.907 31.6544L149.474 33.2194L151.042 31.6544L149.474 30.0893L147.907 31.6544ZM145.429 34.1281L146.997 35.6932L148.564 34.1281L146.997 32.5631L145.429 34.1281ZM143.002 36.5514L144.569 38.1165L146.137 36.5514L144.569 34.9864L143.002 36.5514ZM143.002 39.6311L143.609 39.0252L142.041 37.4602L141.03 38.4699C141.687 38.9243 142.345 39.2777 143.002 39.6311ZM157.717 16.9126L159.284 18.4777L160.447 17.3165C159.992 16.7611 159.487 16.2563 158.93 15.7514L157.717 16.9126ZM155.239 19.3864L156.807 20.9514L158.374 19.3864L156.807 17.8213L155.239 19.3864ZM152.812 21.8602L154.379 23.4252L155.947 21.8602L154.379 20.2951L152.812 21.8602ZM150.334 24.2835L151.902 25.8485L153.469 24.2835L151.902 22.7184L150.334 24.2835ZM147.907 26.7573L149.474 28.3223L151.042 26.7573L149.474 25.1922L147.907 26.7573ZM145.429 29.1806L146.997 30.7456L148.564 29.1806L146.997 27.6155L145.429 29.1806ZM143.002 31.6544L144.569 33.2194L146.137 31.6544L144.569 30.0893L143.002 31.6544ZM140.524 34.1281L142.092 35.6932L143.659 34.1281L142.092 32.5631L140.524 34.1281ZM140.018 37.7126L141.182 36.5514L139.614 34.9864L138.451 36.1476C138.957 36.7029 139.462 37.2078 140.018 37.7126ZM152.812 16.9126L154.379 18.4777L155.947 16.9126L154.379 15.3476L152.812 16.9126ZM150.334 19.3864L151.902 20.9514L153.469 19.3864L151.902 17.8213L150.334 19.3864ZM147.907 21.8602L149.474 23.4252L151.042 21.8602L149.474 20.2951L147.907 21.8602ZM145.429 24.2835L146.997 25.8485L148.564 24.2835L146.997 22.7184L145.429 24.2835ZM143.002 26.7573L144.569 28.3223L146.137 26.7573L144.569 25.1922L143.002 26.7573ZM140.524 29.1806L142.092 30.7456L143.659 29.1806L142.092 27.6155L140.524 29.1806ZM138.046 31.6544L139.614 33.2194L141.182 31.6544L139.614 30.0893L138.046 31.6544ZM137.642 35.1883L138.704 34.1281L137.136 32.5631L136.428 33.2699C136.782 33.9262 137.187 34.5825 137.642 35.1883ZM150.334 14.4893L151.902 16.0544L153.469 14.4893L151.902 12.9243L150.334 14.4893ZM147.907 16.9126L149.474 18.4777L151.042 16.9126L149.474 15.3476L147.907 16.9126ZM145.429 19.3864L146.997 20.9514L148.564 19.3864L146.997 17.8213L145.429 19.3864ZM143.002 21.8602L144.569 23.4252L146.137 21.8602L144.569 20.2951L143.002 21.8602ZM140.524 24.2835L142.092 25.8485L143.659 24.2835L142.092 22.7184L140.524 24.2835ZM138.046 26.7573L139.614 28.3223L141.182 26.7573L139.614 25.1922L138.046 26.7573ZM135.619 29.1806L137.187 30.7456L138.754 29.1806L137.187 27.6155L135.619 29.1806ZM145.429 14.4893L146.997 16.0544L148.564 14.4893L146.997 12.9243L145.429 14.4893ZM143.002 16.9126L144.569 18.4777L146.137 16.9126L144.569 15.3476L143.002 16.9126ZM140.524 19.3864L142.092 20.9514L143.659 19.3864L142.092 17.8213L140.524 19.3864ZM138.046 21.8602L139.614 23.4252L141.182 21.8602L139.614 20.2951L138.046 21.8602ZM135.619 24.2835L137.187 25.8485L138.754 24.2835L137.187 22.7184L135.619 24.2835ZM134.861 28.1204L136.226 26.7573L134.81 25.3437C134.76 25.7476 134.76 26.1514 134.76 26.5553C134.81 27.1107 134.81 27.6155 134.861 28.1204ZM140.878 14.7922L142.092 16.0039L143.659 14.4388L142.85 13.6311C142.092 13.9845 141.485 14.3883 140.878 14.7922ZM138.299 17.165L139.614 18.4777L141.182 16.9126L139.867 15.6C139.26 16.1048 138.754 16.6097 138.299 17.165ZM136.327 20.0932L137.136 20.901L138.704 19.3359L137.49 18.1243C137.035 18.7806 136.681 19.4369 136.327 20.0932ZM150.789 12.2175L149.424 13.5806L148.008 12.167C148.413 12.1165 148.817 12.1165 149.222 12.1165C149.778 12.1165 150.283 12.167 150.789 12.2175ZM154.733 13.1767L154.329 13.5806L153.52 12.7728C153.924 12.8738 154.329 13.0252 154.733 13.1767ZM157.868 14.9437L156.807 16.0039L155.239 14.4388L155.947 13.732C156.655 14.1359 157.262 14.4893 157.868 14.9437ZM162.318 20.3456L161.712 20.9514L160.144 19.3864L161.155 18.3767C161.61 18.9825 162.015 19.6388 162.318 20.3456ZM163.127 22.3145L162.622 21.8097L162.875 21.5573C162.976 21.8602 163.026 22.0621 163.127 22.3145ZM163.684 27.8175L162.622 26.7573L163.734 25.6466C163.734 25.9495 163.785 26.2524 163.785 26.5553C163.734 27.0097 163.734 27.4136 163.684 27.8175ZM162.773 31.8058L162.622 31.6544L162.925 31.3514C162.875 31.5029 162.824 31.6544 162.773 31.8058ZM161.054 34.9864L160.195 34.1281L161.762 32.5631L162.268 33.0679C161.863 33.7243 161.509 34.3806 161.054 34.9864ZM158.728 37.5612L157.717 36.5514L159.284 34.9864L160.296 35.9961C159.79 36.5514 159.284 37.0563 158.728 37.5612ZM155.745 39.5301L155.239 39.0252L156.807 37.4602L157.666 38.3184C157.059 38.7728 156.453 39.1767 155.745 39.5301ZM154.025 40.2369L154.329 39.934L154.481 40.0854C154.329 40.1359 154.177 40.1864 154.025 40.2369ZM148.362 40.9942L149.424 39.934L150.486 40.9942C150.081 41.0446 149.677 41.0446 149.272 41.0446C148.969 41.0446 148.665 41.0446 148.362 40.9942ZM144.266 40.1359L144.519 39.8835L144.974 40.3379C144.772 40.3379 144.519 40.2369 144.266 40.1359ZM135.417 30.8466L136.226 31.6544L135.821 32.0582C135.72 31.6544 135.569 31.2505 135.417 30.8466ZM135.771 21.3553L136.226 21.8097L135.265 22.7689C135.417 22.3145 135.569 21.8097 135.771 21.3553ZM145.48 12.6213L144.519 13.5806L144.064 13.1262C144.519 12.9243 144.974 12.7728 145.48 12.6213ZM149.272 6.66406C151.396 7.37086 152.458 8.633 153.267 9.94562C154.43 9.18833 155.795 8.63299 157.919 8.63299C159.537 10.198 159.942 11.7631 160.093 13.3281C161.459 13.1767 162.925 13.2272 164.897 14.1359C165.656 16.2563 165.352 17.8213 164.796 19.2854C166.111 19.7398 167.375 20.4466 168.74 22.1126C168.487 24.334 167.527 25.6466 166.414 26.7573C167.375 27.7165 168.285 28.9281 168.74 30.998C167.577 32.9165 166.111 33.6738 164.644 34.1281C165.099 35.3903 165.352 36.8544 164.897 38.9747C163.026 40.1864 161.358 40.2369 159.841 40.0349C159.689 41.398 159.284 42.8116 157.97 44.5281C155.745 44.7806 154.228 44.1747 152.964 43.266C152.256 44.4272 151.295 45.5378 149.323 46.4971C147.199 45.7903 146.137 44.5281 145.328 43.2155C144.165 43.9728 142.8 44.5281 140.676 44.5281C139.058 42.9631 138.653 41.398 138.501 39.833C137.136 39.9845 135.67 39.934 133.698 39.0252C132.939 36.9048 133.243 35.3398 133.799 33.8757C132.484 33.4213 131.22 32.7145 129.855 31.0485C130.107 28.8272 131.068 27.5145 132.181 26.4039C131.22 25.4446 130.31 24.233 129.855 22.1631C131.018 20.2446 132.484 19.4874 133.951 19.033C133.495 17.7709 133.243 16.3068 133.698 14.1864C135.569 12.9747 137.237 12.9243 138.754 13.1262C138.906 11.7631 139.311 10.3495 140.625 8.63299C142.85 8.38057 144.367 8.98639 145.631 9.89513C146.39 8.73397 147.351 7.62329 149.272 6.66406Z" fill="black"/>
</g>
<defs>
<clipPath id="clip0_1935_12935">
<rect width="183" height="104" fill="white"/>
</clipPath>
</defs>
</svg>
