<svg width="72" height="72" viewBox="0 0 72 72" fill="none" xmlns="http://www.w3.org/2000/svg">
<path d="M24 59H42C43.1046 59 44 58.1046 44 57V19C44 16.7909 42.2091 15 40 15H9C5.68629 15 3 17.6863 3 21V55C3 57.2091 4.79086 59 7 59H12" stroke="#313E57" stroke-width="3"/>
<path d="M68.2245 36.9435L69.4337 36.0558V36.0558L68.2245 36.9435ZM59.187 24.6329L57.9779 25.5206V25.5206L59.187 24.6329ZM42.5 25V57H45.5V25H42.5ZM70.5001 55V39.3106H67.5001V55H70.5001ZM69.4337 36.0558L60.3962 23.7452L57.9779 25.5206L67.0154 37.8312L69.4337 36.0558ZM55.9626 21.5H46V24.5H55.9626V21.5ZM59.9904 60.5H65.0001V57.5H59.9904V60.5ZM46 60.5H47.9775V57.5H46V60.5ZM60.3962 23.7452C59.36 22.3337 57.7136 21.5 55.9626 21.5V24.5C56.7585 24.5 57.5069 24.879 57.9779 25.5206L60.3962 23.7452ZM70.5001 39.3106C70.5001 38.1398 70.1265 36.9996 69.4337 36.0558L67.0154 37.8312C67.3303 38.2602 67.5001 38.7784 67.5001 39.3106H70.5001ZM67.5001 55C67.5001 56.3807 66.3808 57.5 65.0001 57.5V60.5C68.0377 60.5 70.5001 58.0376 70.5001 55H67.5001ZM42.5 57C42.5 58.933 44.067 60.5 46 60.5V57.5C45.7239 57.5 45.5 57.2761 45.5 57H42.5ZM45.5 25C45.5 24.7239 45.7239 24.5 46 24.5V21.5C44.067 21.5 42.5 23.067 42.5 25H45.5Z" fill="#313E57"/>
<circle cx="18" cy="60" r="6" stroke="#313E57" stroke-width="3"/>
<circle cx="16" cy="26" r="16" fill="#D9C07E"/>
<circle cx="54" cy="60" r="6" stroke="#313E57" stroke-width="3"/>
<path d="M16 15V26.0388C16 26.6463 15.7238 27.2209 15.2494 27.6005L11 31" stroke="#313E57" stroke-width="3" stroke-linecap="round"/>
<path d="M50 23L52.3729 35.2601C52.737 37.1412 54.384 38.5 56.3 38.5H63" stroke="#313E57" stroke-width="3" stroke-linecap="round" stroke-linejoin="round"/>
</svg>
