<svg width="72" height="72" viewBox="0 0 72 72" fill="none" xmlns="http://www.w3.org/2000/svg">
<path fill-rule="evenodd" clip-rule="evenodd" d="M37.4445 3.50011C37.4445 2.70236 36.7978 2.05566 36 2.05566C35.2023 2.05566 34.5556 2.70236 34.5556 3.50011V12.5001C34.5556 13.2979 35.2023 13.9446 36 13.9446C36.7978 13.9446 37.4445 13.2979 37.4445 12.5001V3.50011ZM36.0001 47.0001C44.2844 47.0001 51.0001 40.2844 51.0001 32.0001C51.0001 23.7158 44.2844 17.0001 36.0001 17.0001C27.7158 17.0001 21.0001 23.7158 21.0001 32.0001C21.0001 40.2844 27.7158 47.0001 36.0001 47.0001ZM17.9446 32C17.9446 32.7978 17.2979 33.4445 16.5001 33.4445H7.50011C6.70236 33.4445 6.05566 32.7978 6.05566 32C6.05566 31.2023 6.70236 30.5556 7.50011 30.5556H16.5001C17.2979 30.5556 17.9446 31.2023 17.9446 32ZM64.5001 33.4445C65.2978 33.4445 65.9445 32.7978 65.9445 32C65.9445 31.2023 65.2978 30.5556 64.5001 30.5556H55.5001C54.7023 30.5556 54.0556 31.2023 54.0556 32C54.0556 32.7978 54.7023 33.4445 55.5001 33.4445H64.5001ZM57.1741 10.8264C57.7382 11.3905 57.7382 12.3051 57.1741 12.8692L50.8101 19.2331C50.2461 19.7972 49.3315 19.7972 48.7674 19.2331C48.2033 18.669 48.2033 17.7545 48.7674 17.1904L55.1313 10.8264C55.6954 10.2623 56.61 10.2623 57.1741 10.8264ZM21.1901 19.2325C21.7542 19.7965 22.6688 19.7965 23.2329 19.2325C23.7969 18.6684 23.7969 17.7538 23.2329 17.1897L16.8689 10.8257C16.3048 10.2617 15.3902 10.2617 14.8261 10.8257C14.2621 11.3898 14.2621 12.3044 14.8261 12.8685L21.1901 19.2325Z" fill="#D9C07E"/>
<path d="M3 38C18 38 34.5 45.5 34.5 48.5" stroke="#313E57" stroke-width="2.88889"/>
<path d="M3 44C13 44 29 49 29 52" stroke="#313E57" stroke-width="2.88889"/>
<path d="M3 50C10 50 25 53.5 25 56" stroke="#313E57" stroke-width="2.88889"/>
<path d="M3 56C11.5 56 20.5 59.5 21 60" stroke="#313E57" stroke-width="2.88889"/>
<path d="M3 62C10.5 62 18.5 65.5 19 66" stroke="#313E57" stroke-width="2.88889"/>
<path d="M69 39C44 39 19 53.5 19 69" stroke="#313E57" stroke-width="3"/>
<path d="M69 45C44 45 25 58 25 69" stroke="#313E57" stroke-width="3"/>
<path d="M69 51C44 51 31 62 31 69" stroke="#313E57" stroke-width="3"/>
<path d="M69 57C47.9474 57 37 65 37 69" stroke="#313E57" stroke-width="3"/>
<path d="M69 63C58.5 63 45 66.5 45 69" stroke="#313E57" stroke-width="3"/>
</svg>
